<svg xmlns="http://www.w3.org/2000/svg" width="12.922" height="9.54" viewBox="0 0 12.922 9.54">
  <defs>
    <style>
      .cls-1 {
        fill: #a58a17;
      }
    </style>
  </defs>
  <path id="arrow" class="cls-1" d="M31.985,31.759H22.866L25.3,29.321A.861.861,0,1,0,24.086,28.1l-3.909,3.909h0a.877.877,0,0,0-.107.132c-.013.019-.022.04-.033.06a.883.883,0,0,0-.047.088c-.01.025-.016.051-.024.077a.839.839,0,0,0-.025.084.863.863,0,0,0-.013.133c0,.012,0,.023,0,.035s0,.026,0,.039a.837.837,0,0,0,.013.129.824.824,0,0,0,.026.089c.008.024.013.049.022.072a.821.821,0,0,0,.05.1c.01.017.017.036.029.053a.852.852,0,0,0,.109.133l3.908,3.908A.861.861,0,0,0,25.3,35.92l-2.438-2.438h9.119a.861.861,0,1,0,0-1.723Z" transform="translate(32.847 37.391) rotate(180)"/>
</svg>
